<svg xmlns="http://www.w3.org/2000/svg" xmlns:xlink="http://www.w3.org/1999/xlink" width="22" height="22" viewBox="0 0 22 22">
  <defs>
    <linearGradient id="colorful-logo-b" x1=".879%" x2="121.045%" y1="104.932%" y2="14.6%">
      <stop offset="0%" stop-color="#00F1BA"/>
      <stop offset="100%" stop-color="#6074E6"/>
    </linearGradient>
    <path id="colorful-logo-a" d="M2,0 L20,0 C21.1045695,-2.02906125e-16 22,0.8954305 22,2 L22,20 C22,21.1045695 21.1045695,22 20,22 L2,22 C0.8954305,22 1.3527075e-16,21.1045695 0,20 L0,2 C-1.3527075e-16,0.8954305 0.8954305,2.02906125e-16 2,0 Z"/>
  </defs>
  <g fill="none" fill-rule="evenodd">
    <use fill="url(#colorful-logo-b)" fill-rule="nonzero" xlink:href="#colorful-logo-a"/>
    <g fill="#FFF" fill-rule="nonzero" transform="translate(4 3)">
      <path d="M0.991979289,15.9589957 C0.575989482,15.8202535 0.275358193,15.5537226 0.107563986,15.1776584 L0.0131797436,14.9695452 L0.00269260563,8.10546107 C-0.0042988197,1.90222758 -0.000803107035,1.22677249 0.0516325829,1.04421706 C0.173982526,0.598781809 0.401203849,0.303042013 0.757766541,0.120486584 L0.991979289,0 L6.44529104,0 C10.7869662,0 11.9300642,0.0109533258 12.0454227,0.0474644117 C12.2796355,0.120486584 12.6082325,0.379715294 12.7585481,0.602432918 C13.0172309,0.98579932 12.9997523,0.536712963 12.9997523,7.41540155 C12.9997523,10.8145836 12.9892651,13.6222862 12.978778,13.6551461 C12.9158552,13.8267482 13.1290937,13.819446 7.19686927,13.819446 C3.3410982,13.819446 1.61421614,13.8303993 1.56527617,13.8596082 C1.39748196,13.9508859 1.41146481,14.3159968 1.58625044,14.3963212 C1.65266898,14.4291812 2.92510839,14.4401345 6.56414527,14.4401345 L11.4511516,14.4401345 L11.5210658,14.52411 C11.6434158,14.659201 11.6504072,14.7468276 11.5455358,14.8746164 L11.4546473,14.9878008 L6.44529104,14.9804986 L1.4359348,14.9695452 L1.28561915,14.860012 C1.20172205,14.7979431 1.08636353,14.6774565 1.02693642,14.5898299 C0.932552174,14.4474367 0.922065036,14.4072745 0.922065036,14.1334414 C0.922065036,13.8632593 0.932552174,13.8157949 1.02693642,13.651495 C1.09335496,13.5419618 1.19822634,13.4324285 1.30309772,13.3630574 L1.47438764,13.2535242 L2.23994871,13.2425709 L3.00201407,13.2316175 L3.00201407,0.565921832 L1.12132066,0.565921832 L0.936047887,0.668152872 C0.778740817,0.755779478 0.72980084,0.80324389 0.642408023,0.98579932 L0.537536643,1.20121473 L0.537536643,14.7869898 L0.628425172,14.9914519 C0.705330851,15.1557518 0.757766541,15.2214717 0.890603622,15.3017961 L1.06189354,15.4076783 L11.9335599,15.4076783 L12.0803799,15.3164005 C12.1572855,15.265285 12.2761398,15.1521007 12.3425583,15.0608229 C12.4334468,14.9330341 12.4858825,14.8928719 12.5767711,14.8855697 C12.7305824,14.8709653 12.8599238,14.9914519 12.8599238,15.1484495 C12.8564281,15.3894227 12.4718997,15.7873936 12.1083456,15.9261357 C11.9405514,15.9882045 11.6678858,15.9918556 6.53268386,15.9991578 C2.23295728,16.002809 1.10384209,15.9955067 0.991979289,15.9589957 Z M12.468404,7.22189279 C12.4579168,1.52251228 12.4544211,1.19756362 12.394994,1.05882149 C12.3076012,0.858010519 12.2062255,0.75212837 12.0034742,0.653548438 L11.8286885,0.565921832 L3.52637097,0.565921832 L3.52637097,13.2352686 L12.4753954,13.2352686 L12.468404,7.22189279 Z"/>
      <path d="M7.23744289,10.9727062 C7.06247585,10.904809 6.90592639,10.7868824 6.76779451,10.6153528 C6.46083478,10.2365582 6.40251243,9.76127825 6.59896666,9.30029241 C6.6634282,9.14663046 6.96424874,8.7892771 7.02564068,8.7892771 C7.04098867,8.7892771 7.05326706,8.59273275 7.05326706,8.34973246 L7.05326706,7.91376135 L6.31656371,7.05611328 L5.57986036,6.1984652 L5.57986036,5.26577291 L5.42638049,5.13355217 C5.11635117,4.86553714 4.97821929,4.52605145 5.00277607,4.09365387 C5.02119365,3.77203585 5.12249036,3.53260909 5.33429257,3.31105 C5.84077613,2.78216702 6.58668827,2.94654957 6.89978719,3.6612563 C6.99494471,3.87566832 7.0072231,3.93641839 7.0072231,4.17584515 C7.0041535,4.53677205 6.92127437,4.75118407 6.68491538,5.01562556 C6.58668827,5.1264051 6.49153075,5.21574344 6.47311317,5.21574344 C6.45162599,5.21574344 6.4393476,5.32294945 6.4393476,5.51234674 L6.4393476,5.8053765 L6.97038793,6.42359782 L7.49835866,7.03824561 L8.029399,6.42002428 L8.55736973,5.8053765 L8.55736973,5.5087732 C8.55736973,5.34796419 8.54509134,5.21574344 8.52974335,5.21574344 C8.44686423,5.21574344 8.19208765,4.91914015 8.09693014,4.7118752 C8.00177262,4.50461025 7.99256383,4.45815431 7.98949423,4.17941868 C7.98949423,3.91855073 8.00177262,3.84708005 8.07544296,3.6719769 C8.17367007,3.43969722 8.38240268,3.20384399 8.5880657,3.09663798 C8.66787523,3.05375558 8.8182855,3.01802024 8.94106939,3.00729964 C9.24495952,2.98585844 9.46597053,3.08949092 9.69619032,3.35393241 C10.1474211,3.87924186 10.0890988,4.67971339 9.56726724,5.13355217 L9.41685697,5.26577291 L9.41685697,6.1984652 L8.68015362,7.05611328 L7.94345027,7.91376135 L7.94345027,8.34973246 C7.94345027,8.59273275 7.95572866,8.7892771 7.97107665,8.7892771 C8.03246859,8.7892771 8.33328913,9.14663046 8.39775067,9.30029241 C8.52974335,9.61118984 8.53895215,9.97569027 8.42230745,10.3044554 C8.35784591,10.4867056 8.10613893,10.7833089 7.92810229,10.8905149 C7.76541363,10.9870003 7.39092276,11.0334562 7.23744289,10.9727062 Z M7.69788249,10.2937348 C8.0263294,10.0936169 8.0263294,9.5432927 7.69788249,9.35389542 C7.39706195,9.17521873 7.05326706,9.42893962 7.05326706,9.82560186 C7.05326706,10.2258376 7.40320115,10.4795585 7.69788249,10.2937348 Z M6.2091278,4.64397806 C6.36874686,4.55463972 6.45162599,4.3938307 6.44855639,4.17227162 C6.4424172,3.76488878 6.10783109,3.52188849 5.79780177,3.70771224 C5.6504611,3.79347705 5.57372116,3.92927133 5.55837318,4.13296275 C5.53995559,4.36881597 5.61669552,4.52962498 5.79473217,4.63683099 C5.96049042,4.7333164 6.04643915,4.73688993 6.2091278,4.64397806 Z M9.20198516,4.63683099 C9.37695221,4.52962498 9.45676174,4.36524243 9.43834415,4.13296275 C9.3892306,3.45756488 8.54509134,3.50044729 8.54509134,4.17584515 C8.54509134,4.39025717 8.63104006,4.55463972 8.78758953,4.64397806 C8.94720859,4.73688993 9.03622691,4.7333164 9.20198516,4.63683099 Z"/>
    </g>
  </g>
</svg>
