<svg xmlns="http://www.w3.org/2000/svg" width="500" height="500" version="1" viewBox="0 0 5000 5000">
  <g fill="#000000">
    <path d="M895 4686c-119-38-205-111-253-214l-27-57-3-1880c-2-1699-1-1884 14-1934 35-122 100-203 202-253l67-33h1560c1242 0 1569 3 1602 13 67 20 161 91 204 152 74 105 69-18 69 1866 0 931-3 1700-6 1709-18 47 43 45-1654 45-1103 0-1597 3-1611 11-48 25-44 125 6 147 19 9 383 12 1424 12h1398l20 23c35 37 37 61 7 96l-26 31-1433-2-1433-3-43-30c-24-17-57-50-74-74-27-39-30-50-30-125 0-74 3-87 30-132 19-30 49-60 79-79l49-30 219-3 218-3V470H932l-53 28c-45 24-59 37-84 87l-30 59v3721l26 56c22 45 37 63 75 85l49 29h3110l42-25c22-14 56-45 75-70 26-35 41-46 67-48 44-4 81 29 81 72-1 66-111 175-215 213-48 17-126 18-1595 20-1230 1-1553-1-1585-11zm3283-2393c-3-1561-4-1650-21-1688-25-55-54-84-112-111l-50-24H1620v3470h2560l-2-1647z"/>
    <path d="M2860 3411c-57-19-108-52-153-100-100-106-119-239-55-368 21-43 119-143 139-143 5 0 9-55 9-123v-122l-240-240-240-240v-261l-50-37c-101-75-146-170-138-291 6-90 39-157 108-219 165-148 408-102 510 98 31 60 35 77 35 144-1 101-28 161-105 235-32 31-63 56-69 56-7 0-11 30-11 83v82l173 173 172 172 173-173 172-172v-83c0-45-4-82-9-82-27 0-110-83-141-141s-34-71-35-149c0-73 4-93 28-142 32-65 100-131 167-161 26-12 75-22 115-25 99-6 171 23 246 97 147 147 128 371-42 498l-49 37v261l-240 240-240 240v122c0 68 4 123 9 123 20 0 118 100 139 143 43 87 46 189 8 281-21 51-103 134-161 164-53 27-175 40-225 23zm150-190c107-56 107-210 0-263-98-50-210 21-210 132 0 112 114 183 210 131zm-485-1581c52-25 79-70 78-132-2-114-111-182-212-130-48 24-73 62-78 119-6 66 19 111 77 141 54 27 82 28 135 2zm975-2c57-30 83-76 77-141-16-189-291-177-291 12 0 60 28 106 79 131 52 26 81 25 135-2z"/>
  </g>
</svg>
