<svg xmlns="http://www.w3.org/2000/svg" width="3441" height="3293" viewBox="0 0 3441 3293"><defs><linearGradient id="logo-a" x1="17.854%" x2="79.969%" y1="9.717%" y2="90.084%"><stop offset="0%" stop-color="#EFF7F9"/><stop offset="100%" stop-color="#90E1F3"/></linearGradient><linearGradient id="logo-b" x1="13.582%" x2="76.756%" y1="15.415%" y2="105.815%"><stop offset="0%" stop-color="#EFF7F9"/><stop offset="100%" stop-color="#90E1F3"/></linearGradient></defs><g fill="none"><path fill="url(#logo-a)" d="M1780,3289 C1764,3286 1750,3280 1750,3274 C1750,3269 1845,3242 1960,3214 C2078,3185 2192,3151 2220,3136 C2276,3107 2275,3102 2218,3124 C2152,3149 2011,3178 1944,3179 C1847,3181 1581,3170 1485,3160 C1352,3145 1267,3123 1157,3073 C1128,3060 1098,3049 1091,3049 C1084,3049 1072,3042 1065,3034 C1058,3026 1049,3021 1045,3024 C1040,3027 1033,3025 1030,3019 C1019,3001 883,2937 868,2943 C859,2947 851,2942 848,2929 C845,2918 839,2909 833,2909 C828,2909 776,2873 717,2828 C608,2745 484,2624 439,2556 C424,2533 408,2519 397,2521 C386,2523 381,2518 383,2507 C384,2498 374,2482 360,2473 C346,2464 335,2450 335,2442 C335,2426 299,2352 280,2329 C260,2304 199,2141 172,2039 C140,1921 123,1779 137,1762 C144,1753 144,1745 137,1736 C130,1728 127,1691 129,1643 C131,1600 131,1540 128,1511 C122,1460 122,1459 106,1481 C98,1494 90,1511 90,1519 C90,1527 83,1534 75,1534 C65,1534 58,1520 55,1489 C51,1451 48,1460 37,1554 C29,1615 23,1670 22,1677 C21,1684 16,1690 10,1689 C-10,1688 3,1499 31,1397 C50,1325 61,1308 71,1333 C76,1346 83,1336 96,1297 C106,1268 114,1234 115,1222 C115,1210 126,1187 141,1170 C155,1154 166,1137 166,1134 C165,1131 166,1126 166,1122 C167,1117 168,1107 169,1099 C169,1091 175,1085 181,1086 C197,1089 208,1044 206,991 C204,955 225,865 244,834 C247,829 250,820 250,814 C252,753 359,586 465,480 C591,352 814,199 851,213 C859,216 863,224 860,230 C856,236 867,234 883,225 C921,205 936,222 900,244 C886,252 864,266 851,274 C837,282 820,286 813,284 C805,281 789,292 777,309 C764,326 750,337 746,335 C737,329 569,481 520,540 C455,617 461,624 531,553 C604,479 774,347 786,354 C790,357 806,352 821,344 C837,336 856,329 863,329 C879,329 913,309 937,287 C947,277 963,269 973,269 C983,269 995,265 1000,260 C1011,249 1204,170 1250,158 C1344,133 1395,122 1399,126 C1402,129 1408,128 1414,124 C1425,118 1562,108 1600,111 C1638,114 1741,111 1800,106 C1833,103 1864,104 1870,108 C1886,121 1954,129 1961,118 C1964,113 1971,111 1976,115 C1981,118 1982,125 1979,131 C1974,138 1977,139 1986,133 C2006,121 2027,121 2050,135 C2072,148 2162,169 2213,174 C2232,176 2254,184 2263,192 C2290,216 2352,238 2362,228 C2373,217 2417,236 2525,295 C2561,315 2596,332 2603,333 C2610,334 2616,339 2617,345 C2617,350 2630,363 2645,374 C2660,385 2686,408 2703,424 C2737,458 2794,507 2801,508 C2803,509 2806,512 2806,517 C2807,521 2821,532 2836,541 C2852,551 2865,563 2865,567 C2865,572 2877,590 2893,607 C2970,693 3047,798 3053,828 C3055,836 3062,847 3070,853 C3083,864 3125,949 3125,966 C3125,970 3139,1001 3155,1033 C3182,1086 3210,1174 3219,1234 C3221,1245 3217,1260 3212,1267 C3204,1277 3205,1283 3218,1290 C3243,1305 3239,1328 3209,1340 C3185,1348 3183,1364 3205,1364 C3219,1364 3265,1438 3255,1444 C3249,1448 3245,1458 3245,1468 C3245,1478 3239,1492 3231,1498 C3220,1508 3214,1506 3206,1492 C3195,1473 3195,1472 3190,1544 C3189,1555 3193,1577 3198,1592 C3205,1614 3210,1617 3221,1608 C3233,1598 3232,1594 3215,1582 C3186,1561 3197,1552 3252,1554 C3295,1555 3300,1557 3303,1579 C3305,1593 3311,1608 3316,1613 C3328,1627 3327,1666 3314,1674 C3308,1678 3301,1672 3298,1660 C3293,1640 3292,1640 3273,1664 C3262,1678 3256,1697 3259,1705 C3266,1723 3248,1762 3236,1754 C3231,1751 3224,1756 3221,1765 C3218,1773 3211,1778 3206,1775 C3197,1769 3196,1774 3192,1859 C3191,1891 3185,1905 3174,1907 C3163,1909 3151,1931 3141,1968 C3120,2042 3121,2049 3147,2046 C3165,2044 3172,2052 3182,2083 C3195,2120 3195,2122 3154,2170 C3132,2197 3117,2219 3122,2219 C3126,2219 3123,2225 3115,2232 C3106,2239 3089,2260 3076,2279 C3062,2298 3040,2326 3027,2342 C3013,2357 3005,2369 3009,2369 C3014,2369 3011,2377 3004,2386 C2996,2396 3006,2391 3025,2375 C3044,2359 3066,2338 3073,2327 C3089,2305 3107,2312 3098,2337 C3095,2346 3072,2385 3048,2422 C3025,2459 2998,2506 2989,2527 L2974,2564 L3009,2530 C3043,2497 3065,2495 3065,2526 C3065,2535 3048,2563 3028,2588 C2971,2659 2822,2799 2803,2799 C2794,2799 2778,2811 2768,2825 C2758,2839 2741,2851 2732,2853 C2722,2854 2701,2875 2684,2900 C2651,2950 2646,2970 2674,2945 C2686,2934 2695,2931 2699,2938 C2715,2963 2647,3036 2619,3025 C2604,3019 2604,3016 2625,2994 C2668,2948 2633,2968 2574,3024 C2464,3125 2393,3167 2248,3217 C2097,3269 1863,3305 1780,3289 Z M2073,3024 C2160,3003 2223,2969 2293,2905 C2491,2721 2498,2407 2308,2208 C2129,2020 1816,2008 1628,2182 C1567,2238 1529,2295 1499,2376 C1469,2457 1464,2462 1427,2461 C1366,2460 1075,2298 1075,2267 C1075,2262 1088,2241 1105,2221 C1202,2099 1222,1918 1154,1773 C1124,1711 1047,1629 987,1596 C960,1582 902,1561 857,1550 C812,1539 771,1528 765,1524 C728,1501 807,1175 865,1117 L892,1090 L960,1111 C1019,1129 1036,1131 1086,1121 C1194,1101 1272,1047 1315,963 C1338,919 1340,902 1340,794 L1340,674 L1367,661 C1471,611 1722,585 1864,609 C1960,625 1973,638 1973,723 C1973,774 1978,801 1997,837 C2064,967 2242,1007 2364,918 C2397,893 2408,889 2420,899 C2453,927 2551,1065 2591,1141 C2615,1187 2635,1220 2635,1216 C2635,1194 2527,1000 2479,938 C2449,900 2425,864 2425,858 C2425,853 2432,834 2441,818 C2450,800 2457,761 2457,724 C2458,574 2327,461 2177,484 C2118,493 2084,510 2029,561 L1985,602 L1927,584 C1888,572 1821,565 1713,562 C1549,556 1475,566 1349,609 L1296,628 L1263,603 C1185,546 1124,524 1045,524 C866,525 751,642 750,824 C750,893 754,912 779,961 L807,1017 L757,1121 C699,1237 670,1334 654,1458 C649,1505 639,1549 634,1556 C628,1562 604,1578 579,1589 C521,1617 443,1689 412,1742 C343,1860 336,2021 395,2143 C463,2285 587,2369 743,2377 C802,2380 845,2377 890,2364 L953,2347 L1023,2406 C1116,2483 1198,2531 1325,2580 C1383,2602 1439,2624 1451,2628 C1463,2634 1476,2654 1484,2680 C1507,2757 1558,2842 1616,2900 C1734,3017 1905,3064 2073,3024 Z M795,2760 C776,2744 757,2733 753,2735 C749,2737 742,2731 736,2722 C731,2712 723,2708 719,2712 C709,2721 729,2741 775,2767 C826,2797 835,2793 795,2760 Z M2950,2599 C2960,2588 2965,2579 2961,2579 C2947,2579 2915,2600 2915,2609 C2915,2625 2931,2620 2950,2599 Z M323,2197 C311,2179 294,2160 287,2156 C277,2149 277,2144 286,2133 C293,2124 294,2119 287,2119 C268,2119 268,2144 289,2179 C309,2213 336,2241 343,2234 C345,2232 336,2216 323,2197 Z M182,1717 C182,1710 185,1681 189,1653 C194,1610 193,1600 179,1595 C165,1590 164,1591 175,1603 C185,1615 183,1624 165,1649 C144,1678 144,1681 159,1704 C178,1732 182,1734 182,1717 Z M144,1385 L143,1354 L130,1384 C122,1401 116,1423 116,1434 C116,1454 116,1454 130,1435 C138,1424 145,1401 144,1385 Z M3138,1146 C3136,1142 3139,1131 3146,1123 C3158,1109 3152,1094 3134,1094 C3129,1094 3126,1090 3128,1084 C3129,1079 3133,1075 3136,1076 C3140,1077 3134,1056 3122,1029 C3111,1002 3097,981 3092,982 C3077,985 3047,926 3052,901 C3054,887 3052,880 3046,883 C3035,890 2980,843 2980,827 C2980,816 2963,804 2932,795 C2921,791 2917,784 2921,777 C2926,767 2925,767 2915,776 C2905,785 2910,794 2936,820 C2955,838 2970,858 2970,863 C2970,869 2976,884 2982,895 C2996,920 2988,934 2968,918 C2961,912 2955,910 2955,914 C2955,927 2891,857 2870,822 C2859,804 2847,789 2842,789 C2831,789 2709,659 2714,651 C2715,647 2721,645 2726,647 C2731,648 2735,645 2735,639 C2735,626 2718,626 2710,640 C2705,647 2696,644 2684,633 C2662,613 2660,621 2677,652 C2684,664 2689,681 2690,689 C2690,698 2702,704 2720,706 C2736,707 2756,716 2763,726 C2770,736 2795,764 2818,789 C2890,866 2955,968 2955,1004 C2955,1011 2964,1024 2975,1034 C2987,1044 2994,1058 2991,1065 C2988,1072 2993,1080 3001,1083 C3009,1086 3014,1092 3014,1096 C3009,1118 3028,1139 3049,1133 C3060,1131 3078,1134 3088,1141 C3108,1156 3147,1160 3138,1146 Z M2690,553 C2689,529 2682,513 2669,505 C2640,488 2605,480 2605,490 C2605,495 2609,499 2613,499 C2618,499 2636,519 2654,544 C2672,569 2687,589 2688,589 C2690,589 2690,573 2690,553 Z"/><path fill="url(#logo-b)" d="M1900,2799 C1857,2751 1890,2679 1955,2679 C2023,2679 2060,2754 2015,2799 C1988,2826 1925,2826 1900,2799 Z M1912,2642 C1894,2621 1875,2498 1875,2404 C1875,2347 1878,2338 1899,2324 C1937,2299 2003,2308 2028,2342 C2049,2369 2049,2370 2031,2496 C2020,2578 2008,2630 1998,2641 C1977,2664 1933,2664 1912,2642 Z M850,2146 C820,2116 815,2114 789,2126 C696,2165 570,2100 535,1994 C495,1871 595,1738 728,1737 C792,1736 829,1754 878,1808 C915,1849 940,1917 932,1950 C928,1963 932,1969 945,1969 C970,1969 1010,2004 1025,2038 C1051,2103 995,2179 920,2179 C892,2179 875,2171 850,2146 Z M1045,921 C977,920 917,915 912,910 C905,903 1039,669 1050,669 C1052,669 1085,721 1125,785 C1182,879 1194,904 1183,913 C1175,920 1125,923 1045,921 Z M2119,806 C2117,799 2115,752 2117,703 L2120,614 L2211,611 C2281,609 2305,612 2314,623 C2322,632 2325,668 2323,726 L2320,814 L2222,817 C2147,819 2123,817 2119,806 Z M3015,1054 C3006,1043 3005,1035 3012,1028 C3019,1021 3026,1023 3035,1034 C3044,1045 3045,1053 3038,1060 C3031,1067 3024,1065 3015,1054 Z M3122,2512 C3115,2500 3226,2308 3236,2315 C3241,2318 3224,2361 3198,2410 C3151,2500 3131,2527 3122,2512 Z M3150,2240 C3140,2223 3165,2195 3179,2209 C3186,2216 3184,2224 3173,2235 C3162,2246 3155,2248 3150,2240 Z M3265,2010 C3259,1998 3259,1988 3264,1984 C3270,1981 3279,1987 3285,1998 C3291,2010 3291,2020 3286,2024 C3280,2027 3271,2021 3265,2010 Z M90,1969 C86,1963 87,1953 93,1947 C99,1941 105,1941 110,1949 C114,1955 113,1965 107,1971 C101,1977 95,1977 90,1969 Z M3231,1871 C3225,1861 3242,1800 3255,1785 C3267,1773 3287,1788 3278,1802 C3274,1808 3270,1822 3270,1832 C3268,1855 3239,1884 3231,1871 Z M3400,1540 C3397,1534 3403,1525 3414,1519 C3426,1513 3436,1513 3440,1518 C3443,1524 3437,1533 3426,1539 C3414,1545 3404,1545 3400,1540 Z M3292,1123 C3284,1107 3270,1069 3260,1039 C3250,1009 3215,928 3182,861 C3145,783 3126,734 3132,728 C3145,715 3156,729 3212,836 C3239,886 3263,927 3268,928 C3272,928 3278,929 3281,929 C3285,929 3283,935 3277,942 C3270,950 3271,962 3280,979 C3287,993 3296,1003 3299,1002 C3313,995 3317,1000 3307,1012 C3299,1022 3300,1040 3310,1079 C3326,1141 3315,1168 3292,1123 Z M163,972 C154,957 163,899 175,884 C195,860 208,881 199,921 C195,939 191,958 191,963 C190,975 168,982 163,972 Z M2918,584 C2890,549 2869,518 2873,515 C2881,507 2985,610 2985,626 C2985,655 2966,643 2918,584 Z M2628,324 C2572,287 2560,273 2573,265 C2585,258 2696,339 2689,350 C2682,362 2687,364 2628,324 Z M2100,19 C2092,7 2120,-5 2135,4 C2141,7 2143,15 2140,20 C2132,32 2108,32 2100,19 Z"/></g></svg>